<?xml version="1.0" encoding="UTF-8" standalone="no"?>
<!-- Created with Inkscape (http://www.inkscape.org/) -->
<svg
   xmlns:svg="http://www.w3.org/2000/svg"
   xmlns="http://www.w3.org/2000/svg"
   xmlns:inkscape="http://www.inkscape.org/namespaces/inkscape"
   version="1.0"
   width="233"
   height="233"
   id="svg2">
  <defs
     id="defs4">
    <filter
       height="1.2003291"
       y="-0.10016454"
       width="1.0970324"
       x="-0.048516218"
       id="filter3744">
      <feGaussianBlur
         id="feGaussianBlur3746"
         stdDeviation="0.55246524"
         inkscape:collect="always" />
    </filter>
    <filter
       id="filter3939">
      <feGaussianBlur
         id="feGaussianBlur3941"
         stdDeviation="0.30027483"
         inkscape:collect="always" />
    </filter>
    <filter
       height="2.0027053"
       y="-0.50135273"
       width="1.1055479"
       x="-0.052773971"
       id="filter3463">
      <feGaussianBlur
         id="feGaussianBlur3465"
         stdDeviation="0.78336362"
         inkscape:collect="always" />
    </filter>
  </defs>
  <g
     transform="translate(-241.83988,-458.73949)"
     id="layer1"
     style="display:inline">
    <path
       d="M 35.625,27.938435 A 17.8125,1.875 0 1 1 0,27.938435 A 17.8125,1.875 0 1 1 35.625,27.938435 z"
       transform="matrix(6.0111628,0,0,6.9837448,254.95502,476.59623)"
       id="path3313"
       style="opacity:0.26063244;fill:#000000;fill-opacity:1;stroke:none;stroke-width:2;stroke-linecap:butt;stroke-linejoin:miter;stroke-miterlimit:4;stroke-dasharray:none;stroke-dashoffset:0;stroke-opacity:1;filter:url(#filter3463)" />
    <path
       d="M 390.81234,468.23789 C 388.86997,468.19659 386.83922,468.35227 384.70157,468.67436 C 384.48996,468.70628 384.26145,468.85719 384.04684,468.89259 C 372.64295,469.99667 360.40199,473.4159 346.94569,479.36822 C 342.96566,481.12876 338.75329,482.82126 334.72415,484.38778 C 334.15573,484.60882 333.54384,484.82659 332.9782,485.04251 C 327.56589,486.7358 322.29971,488.39464 317.91952,489.62561 C 317.78019,489.66456 317.62145,489.80521 317.48302,489.84385 C 313.96356,490.8266 310.81761,491.52112 308.5351,492.02625 C 306.85636,492.3978 305.07782,492.93199 303.07906,493.77219 C 302.54905,493.82282 301.97778,493.99043 301.55136,493.99043 C 289.63033,493.99043 261.91736,516.88873 250.70096,533.27399 C 250.57603,533.41556 250.38502,533.5699 250.26449,533.71049 C 250.03871,534.04766 249.82072,534.4706 249.60976,534.8017 C 247.22536,537.80086 245.6814,540.45582 245.6814,542.87664 C 245.67016,544.18604 245.6814,545.49563 245.6814,546.80501 C 245.6814,558.05134 255.44657,566.61211 268.81507,572.33932 C 269.68873,572.71359 270.52956,573.08239 271.43395,573.43052 C 281.52135,578.24172 293.52473,581.28724 305.47972,581.28724 C 315.0839,580.80257 324.1673,579.40312 333.4147,576.48593 C 333.60493,576.39933 333.87834,576.36545 334.06942,576.26767 C 334.16272,576.2331 334.195,576.08451 334.28768,576.04944 C 334.42448,575.97617 334.587,575.90997 334.72415,575.8312 C 344.20849,572.12639 350.62398,566.06973 350.87405,557.06239 C 350.89653,556.25241 350.83766,555.17181 351.09231,554.00701 C 351.40963,553.32671 351.87607,552.74306 352.18351,552.04283 C 352.20992,551.98277 352.15726,551.88477 352.18351,551.82457 L 365.71452,543.31314 C 365.05979,546.00587 364.40506,548.82805 364.40506,551.3881 C 364.40506,554.62078 365.14745,556.98591 366.80573,558.80831 C 369.41228,564.88598 379.04636,563.82789 399.76026,563.82789 C 405.20417,563.82789 410.02813,564.16416 414.16424,564.4826 C 414.28807,564.49162 414.47824,564.47331 414.60074,564.4826 C 416.48627,564.635 418.25589,564.70421 419.83855,564.9191 C 420.11991,564.94879 420.43865,564.88815 420.71151,564.9191 C 422.05642,565.11973 423.32644,565.54547 424.42163,565.79207 C 424.5458,565.81964 424.73736,565.76384 424.8581,565.79207 C 426.00784,566.06639 427.07161,566.5579 427.91349,566.88328 C 427.96972,566.9057 428.07705,566.86058 428.13175,566.88328 C 429.89444,567.59791 430.96959,568.35237 431.18714,569.28393 C 430.43651,569.77992 429.3555,570.20453 427.91349,570.5934 C 426.0575,571.09392 423.64048,571.39297 420.92975,571.68461 C 418.21908,571.97625 415.22012,572.29169 411.98183,572.33932 C 408.74354,572.38694 405.38143,572.35266 401.94271,572.12109 C 375.37403,570.33171 352.26354,575.85865 336.68833,586.96153 C 336.47519,587.10394 336.24416,587.25389 336.0336,587.39803 C 335.66243,587.66983 335.30472,587.99275 334.94238,588.27101 C 328.13793,593.1511 322.63055,598.93421 319.22896,605.5121 C 311.99871,624.88572 312.29726,639.61673 323.37556,657.23547 C 323.43535,657.50024 323.53445,657.61394 323.59382,657.89021 C 324.97142,659.64158 326.39018,661.24993 327.74041,662.69153 C 327.92108,662.90445 327.99272,663.13177 328.17688,663.34625 C 329.82198,665.26167 331.98659,667.12229 334.50591,668.58406 C 342.25235,673.89954 351.5904,675.56781 367.46044,675.56781 C 370.19572,675.55244 372.98564,675.44252 375.75365,675.13131 C 380.71714,674.73639 385.52775,674.23356 390.15764,673.16713 C 398.44217,671.44613 406.4917,668.72123 413.50954,665.09219 C 424.85358,659.7557 434.38561,650.70225 442.31747,641.95855 C 446.69126,636.80306 450.52734,631.08344 453.88431,625.15388 C 455.0811,623.13134 456.30278,620.91748 457.37615,618.82488 C 457.59023,618.38372 457.82236,617.95951 458.03089,617.51544 C 477.61131,578.1806 476.17231,527.56548 444.56226,495.64286 C 429.99389,479.06897 415.16858,471.41542 395.8319,468.67436 C 395.33168,468.64525 394.80865,468.69287 394.30422,468.67436 C 393.16518,468.52071 391.96516,468.2624 390.81234,468.23789 z"
       id="path2390"
       style="fill:#8f5902;fill-opacity:1;stroke:#1e1200;stroke-width:6.9837451;stroke-opacity:1" />
    <path
       d="M 372.72318,538.56437 C 372.45627,538.55881 372.17721,538.57979 371.88348,538.62321 C 371.8544,538.6275 371.823,538.64785 371.79351,538.65262 C 370.22648,538.80143 368.54442,539.26231 366.69536,540.06461 C 366.14845,540.30191 365.56963,540.53003 365.01597,540.74118 C 364.93786,540.77097 364.85378,540.80032 364.77606,540.82943 C 364.03233,541.05767 363.3087,541.28126 362.70681,541.44717 C 362.68766,541.45242 362.66585,541.47139 362.64683,541.47659 C 362.16321,541.60905 361.73092,541.70266 361.41727,541.77075 C 361.18659,541.82083 360.94219,541.89283 360.66755,542.00608 C 360.59472,542.01291 360.51622,542.03549 360.45762,542.03549 C 358.81953,542.03549 355.01142,545.12191 353.47016,547.33044 C 353.45299,547.34951 353.42675,547.37033 353.41017,547.38927 C 353.37916,547.43472 353.3492,547.49172 353.32021,547.53636 C 352.99257,547.94061 352.78041,548.29845 352.78041,548.62476 C 352.77886,548.80125 352.78041,548.97777 352.78041,549.15425 C 352.78041,550.67012 353.11354,552.59116 354.37714,551.05046 C 355.30969,549.91341 358.5196,546.55443 361.18936,544.17381 C 378.12584,536.53772 379.97785,543.93236 380.10907,542.25823 C 378.1072,540.02427 376.07001,538.99266 373.41292,538.62321 C 373.34418,538.61927 373.27232,538.62569 373.203,538.62321 C 373.04648,538.60249 372.88158,538.56768 372.72318,538.56437 z"
       transform="matrix(6.9837448,0,0,6.9837448,-2212.7614,-3287.6501)"
       id="path3574"
       style="opacity:0.80237157;fill:#b26e02;fill-opacity:1;stroke:none;stroke-opacity:1;display:inline;filter:url(#filter3744)" />
    <g
       transform="matrix(10.068044,0,0,10.068044,-3310.4877,-4970.1954)"
       id="g3309">
      <path
         d="M 6.4285716,8.2275839 A 0.71428573,0.84821427 0 1 1 5.0000001,8.2275839 A 0.71428573,0.84821427 0 1 1 6.4285716,8.2275839 z"
         transform="matrix(1.4599453,0,0,1.2977292,349.90907,534.74232)"
         id="path3282"
         style="fill:#000000;fill-opacity:1;stroke:#000000;stroke-width:0;stroke-linecap:butt;stroke-linejoin:miter;stroke-miterlimit:4;stroke-dasharray:none;stroke-dashoffset:0;stroke-opacity:1" />
      <path
         d="M 5.2901785,7.3124051 A 0.17857143,0.17857143 0 1 1 4.9330356,7.3124051 A 0.17857143,0.17857143 0 1 1 5.2901785,7.3124051 z"
         transform="matrix(1.2977292,0,0,1.2977292,351.2995,535.5534)"
         id="path3284"
         style="fill:#ffffff;fill-opacity:0.86192471;stroke:#000000;stroke-width:0;stroke-linecap:butt;stroke-linejoin:miter;stroke-miterlimit:4;stroke-dasharray:none;stroke-dashoffset:0;stroke-opacity:1" />
    </g>
    <path
       d="M 25.875,24 C 24.09293,25.638182 23.139593,26.0139 20.875,26.5625 C 19.962857,26.871805 17.506148,27.085793 16.78125,27.71875 C 16.278466,28.321036 15.376632,28.541485 15.84375,29.1875 C 16.238664,29.920819 18.782367,29.565038 19.52432,29.408989 C 20.607007,29.357545 21.034816,29.564099 21.984301,29.187527 C 23.436828,28.623141 24.744005,27.969302 26.160485,27.318712 C 26.905708,26.9265 28.646196,25.093621 28.686613,24.260649 C 28.648639,23.321074 30.470368,22.254346 29.686994,21.780947 C 29.267573,21.510841 27.059615,23.359028 25.875,24 z"
       transform="matrix(6.9837448,0,0,6.9837448,241.97128,464.73952)"
       id="path3748"
       style="opacity:0.79841901;fill:#744800;fill-opacity:1;stroke:none;stroke-width:2;stroke-linecap:butt;stroke-linejoin:miter;stroke-miterlimit:4;stroke-dashoffset:0;stroke-opacity:1;filter:url(#filter3939)" />
    <path
       d="M 401.06973,589.14395 L 392.55829,592.85407 C 391.80377,593.94458 390.76341,594.88445 389.72114,595.69122 C 389.44027,595.91763 389.13717,596.13079 388.84816,596.34595 C 387.67155,596.85883 386.65017,597.32452 385.79278,597.6554 C 384.0421,598.38158 382.2822,599.05668 380.55499,599.83781 C 379.17135,600.52845 377.8121,601.37011 376.40838,602.02025 C 374.47687,602.91836 372.51981,603.70479 370.51586,604.4209 C 368.30723,605.25232 365.98271,606.05348 363.75034,606.82157 C 361.98785,607.38543 360.47915,608.18374 358.73079,608.78575 C 357.80011,609.03311 356.77385,609.28201 355.89364,609.65871 C 355.32674,608.49712 354.70122,607.33605 354.14769,606.16684 C 353.52901,604.85053 353.18986,603.42578 352.83822,602.02025 C 352.53739,600.60414 352.20334,599.1102 352.40175,597.6554 L 344.3268,602.02025 C 344.39308,603.49061 344.65146,604.73713 344.98151,606.16684 C 345.29503,607.66458 345.64728,609.35834 346.29099,610.74993 C 346.7635,611.7111 347.34412,612.62714 347.81866,613.58706 C 347.32842,613.79448 346.78353,614.03614 346.29099,614.24179 C 344.98852,614.76013 343.83968,615.36771 342.58085,615.98773 C 342.39383,616.07202 342.11315,616.1216 341.92612,616.20596 L 334.72415,621.88026 C 334.92452,621.8096 335.17851,621.73263 335.37888,621.66203 C 336.66403,621.0742 337.93822,620.30663 339.30725,619.91609 C 340.41723,619.42212 341.51486,618.9559 342.58085,618.38838 C 342.93033,618.20942 343.31968,618.12512 343.67207,617.95191 C 345.56508,617.02126 347.20298,616.62982 348.90987,615.98773 C 349.38911,617.00024 349.76009,618.0221 350.21934,619.04312 C 351.19512,620.81553 352.05558,622.63485 352.83822,624.49917 C 353.45937,625.69319 354.01773,626.77098 354.58416,627.99104 C 354.99956,628.91045 355.60793,629.73969 356.11187,630.60995 C 355.81149,630.74957 355.53123,630.89139 355.2389,631.04643 C 354.40525,631.47103 353.43766,631.68301 352.61998,632.13763 C 351.66924,632.58606 350.71345,633.17556 349.78284,633.66534 C 349.06841,634.03783 348.3021,634.36014 347.60042,634.75655 L 341.27143,639.99437 C 341.71362,639.76829 342.21763,639.72226 342.58085,639.33963 C 343.56586,638.9662 344.39384,638.31728 345.41801,638.03016 C 346.26046,637.61025 347.16381,637.06873 348.03693,636.72072 C 349.00222,636.24375 349.8633,635.79126 350.87405,635.41127 C 352.15684,634.82539 353.43094,634.04246 354.8024,633.66534 C 355.54005,633.35268 356.23674,633.08198 356.98485,632.79237 C 357.45798,633.88777 358.01249,634.98331 358.51252,636.06598 C 359.15371,637.24429 359.51225,638.54788 360.04023,639.7761 C 360.60764,641.25944 361.10742,642.70315 361.78617,644.14096 C 362.49005,645.72676 363.28221,647.34844 363.96858,648.94229 C 364.63721,650.40824 365.39216,651.88529 366.151,653.30712 C 365.31903,653.56187 364.58294,653.92699 363.75034,654.18009 C 362.10498,654.70916 360.37606,655.17952 358.73079,655.70778 C 357.94009,655.96862 357.12031,656.09951 356.33011,656.3625 L 349.12813,662.0368 C 349.89641,661.71757 350.77727,661.52985 351.52878,661.16382 C 353.25397,660.6575 354.80583,660.09475 356.54834,659.63615 C 358.19651,659.09441 359.94596,658.7258 361.56791,658.10844 C 362.82227,657.80591 364.06741,657.45764 365.27803,657.01723 C 365.99142,656.70311 366.72011,656.39728 367.46044,656.14426 C 367.64147,656.49442 367.71313,656.88663 367.89695,657.23547 C 368.78351,658.55149 369.96643,659.6985 370.95233,660.94559 C 371.88424,661.97912 372.82643,662.99567 373.78947,664.00098 C 374.58716,664.83352 375.19138,665.77367 375.97189,666.61988 C 376.46082,667.20617 376.97978,667.80656 377.49959,668.36582 L 385.3563,663.56451 C 384.8124,663.03926 384.3098,662.40113 383.82859,661.81857 C 383.04035,660.95829 382.44199,660.05426 381.64619,659.19965 C 380.6392,658.27269 379.57062,657.31893 378.59081,656.3625 C 377.61488,655.18371 376.8193,653.92902 375.97189,652.65239 C 377.0985,652.1143 378.31522,651.39267 379.46377,650.90647 C 381.01415,650.19286 382.48709,649.63514 384.04684,648.94229 C 386.76576,647.80763 389.42594,646.4192 392.12181,645.23216 C 394.63974,644.15156 397.18398,643.11043 399.76026,642.17679 C 401.48777,641.46429 403.13112,640.8843 404.77985,639.99437 C 408.91743,637.79497 413.21306,635.84999 417.00139,633.01061 C 418.34667,632.1283 419.84693,631.33829 421.14798,630.39171 C 421.38719,630.21222 421.5594,629.91081 421.80273,629.73698 C 422.02257,629.57992 422.69266,629.16752 422.45746,629.30051 C 422.41205,629.32619 417.94756,631.97898 424.8581,627.99104 L 416.56492,631.04643 C 415.29645,631.7515 414.34142,632.34002 412.63657,633.66534 C 412.22823,633.91297 411.94147,634.27159 411.54536,634.53832 C 410.03001,635.37299 408.34056,635.84685 406.74402,636.50248 C 404.07163,637.59991 401.53093,638.82863 398.88732,639.99437 C 396.30305,641.14354 393.64118,642.1795 391.03061,643.26799 C 389.46561,643.91362 387.97807,644.72855 386.44751,645.4504 C 384.97332,646.09458 383.54333,646.74018 382.08267,647.41458 C 380.55499,648.11149 378.81045,648.68457 377.28134,649.37876 C 376.46647,649.77083 375.7223,650.14516 374.88067,650.46996 C 374.60379,649.96679 374.26276,649.45677 374.00771,648.94229 C 373.26764,647.46415 372.51319,646.08069 371.8253,644.57744 C 371.12546,642.98095 370.38741,641.35165 369.64289,639.7761 C 369.00059,638.33781 368.49278,636.86906 367.89695,635.41127 C 367.40269,634.14755 367.02342,632.89984 366.36924,631.70116 C 366.04486,631.06656 365.77492,630.39435 365.49626,629.73698 C 366.27607,629.45455 367.12342,629.16439 367.89695,628.864 C 370.63263,627.98063 373.25194,627.17025 375.97189,626.24509 C 378.58675,625.37194 381.05488,624.22205 383.61036,623.18971 C 384.62134,622.62208 385.65429,622.01066 386.66575,621.44379 C 386.21091,621.71573 386.83712,621.58519 387.53873,621.22553 C 387.62363,621.17791 387.67198,621.05492 387.75696,621.0073 C 390.14339,619.59183 392.89679,618.49343 395.39543,617.29718 C 397.5317,616.36149 399.66363,615.33176 401.72444,614.24179 C 403.04473,613.6166 404.29308,613.02817 405.65282,612.49585 L 412.85481,606.82157 C 411.40065,607.36531 410.09287,608.08777 408.7082,608.78575 C 406.53032,609.85762 404.36675,611.04367 402.16095,612.05938 C 399.71487,613.17755 397.145,614.12636 394.7407,615.333 C 393.32183,616.07343 391.97891,616.94297 390.59411,617.73367 C 390.54012,617.76532 390.42986,617.70204 390.37587,617.73367 C 387.93057,618.85721 385.49318,619.8966 382.95564,620.78906 C 380.19756,621.73472 377.43038,622.70959 374.66244,623.62621 C 372.15297,624.50631 369.76146,625.3924 367.2422,626.24509 C 366.31351,626.52712 365.31351,626.7793 364.40506,627.11806 C 363.77791,625.96653 362.95238,624.83816 362.44088,623.62621 C 361.93513,622.37764 361.39339,621.06982 360.69497,619.91609 C 359.83896,618.07497 358.7833,616.36317 358.07605,614.46002 C 357.70522,613.72577 357.32299,613.02908 356.98485,612.27762 C 359.11816,611.49279 361.42756,610.73819 363.53208,609.87696 C 365.50235,609.12542 367.50409,608.35631 369.42462,607.47628 C 370.8519,606.88504 372.21471,606.24744 373.57124,605.5121 C 375.2722,604.57922 377.10458,604.04768 378.80904,603.11146 C 383.95817,601.16634 388.84664,598.91974 393.43125,595.69122 C 395.07131,594.64933 396.51242,593.65385 398.01434,592.4176 C 399.10834,591.48485 400.262,590.34573 401.06973,589.14395 z"
       id="path3286"
       style="fill:#000000;fill-opacity:0.67364017;stroke:#000000;stroke-width:0;stroke-linecap:butt;stroke-linejoin:miter;stroke-miterlimit:4;stroke-dasharray:none;stroke-dashoffset:0;stroke-opacity:1" />
    <path
       d="M 374.95268,584.30715 C 375.84551,585.27406 376.45866,586.4416 377.09347,587.58303 C 377.83362,589.09621 378.37745,590.69393 379.04322,592.23993 C 379.69655,593.77503 380.38835,595.29684 381.20502,596.75263 C 382.09279,598.17799 382.93021,599.64661 383.86255,601.04502 C 384.54471,602.05594 385.25314,603.04314 385.89956,604.07891 C 386.55738,605.30183 387.20672,606.52951 387.86563,607.75201 C 388.60487,609.23145 389.28557,610.74021 390.03751,612.21329 C 390.83469,613.78457 391.66492,615.33881 392.45005,616.91629 C 393.17845,618.55621 393.83673,620.22177 394.62527,621.83503 C 395.28753,623.2002 395.95706,624.56279 396.65572,625.90988 C 397.29633,627.11535 397.81586,628.39156 398.53478,629.55309 C 399.29935,630.87986 400.01147,632.23695 400.7457,633.58118 C 401.37764,634.76269 402.06764,635.91109 402.73381,637.07398 C 403.5331,638.25135 404.27743,639.45145 405.11345,640.60984 C 406.56327,642.37846 407.9728,644.17929 409.4343,645.93876 C 410.78691,647.21638 411.83587,648.76258 413.09831,650.11905 C 413.77908,650.79904 414.33772,651.56251 414.93002,652.31487 L 407.05863,656.98866 C 406.51322,656.23597 405.9619,655.50002 405.34832,654.79906 C 404.16583,653.3743 403.11751,651.84604 401.87035,650.47423 C 400.40802,648.68311 398.81131,647.01533 397.4305,645.1575 C 396.55321,643.97733 395.56681,642.89456 394.81551,641.62763 C 394.18096,640.44459 393.55865,639.25652 392.94225,638.0639 C 392.207,636.72994 391.42756,635.4269 390.66422,634.10893 C 389.97947,632.90697 389.41365,631.63914 388.78943,630.4051 C 388.08401,629.05013 387.43747,627.66378 386.80053,626.27576 C 386.02919,624.65681 385.36419,622.99132 384.61211,621.36453 C 383.86918,619.77383 383.00781,618.24656 382.23805,616.66956 C 381.47055,615.21255 380.75604,613.72848 380.01212,612.25946 C 379.35218,611.05553 378.73299,609.82912 377.98741,608.67407 C 377.36472,607.63489 376.71022,606.61973 376.0761,605.58816 C 375.18559,604.14148 374.24098,602.72908 373.41243,601.24658 C 372.55551,599.77007 371.82801,598.23163 371.22072,596.63514 C 370.56753,595.11925 369.97228,593.57241 369.19597,592.11373 C 368.62527,591.02817 368.09598,589.88033 367.08766,589.12684 L 374.95268,584.30715 z"
       id="path3292"
       style="fill:#000000;fill-opacity:0.67364017;stroke:#000000;stroke-width:0;stroke-linecap:butt;stroke-linejoin:miter;stroke-miterlimit:4;stroke-dasharray:none;stroke-dashoffset:0;stroke-opacity:1" />
    <path
       d="M 388.46771,475.22177 C 386.64919,475.18315 384.74801,475.32888 382.74677,475.63046 C 382.54871,475.66026 382.3347,475.80155 382.13379,475.83474 C 371.45746,476.86838 359.99748,480.06946 347.39965,485.642 C 343.67354,487.29023 339.72989,488.87478 335.95783,490.34135 C 335.42568,490.54829 334.85278,490.75214 334.32328,490.95433 C 329.25623,492.53956 324.32605,494.09255 320.22535,495.245 C 320.09488,495.28146 319.94627,495.41317 319.81666,495.44933 C 316.52177,496.36938 313.57653,497.01956 311.43965,497.49252 C 309.86794,497.84029 308.20288,498.34039 306.33167,499.12705 C 305.83547,499.17446 305.30065,499.33132 304.90146,499.33132 C 293.74095,499.33132 267.79597,520.76877 257.29521,536.10871 C 257.17827,536.24118 256.99948,536.38568 256.88663,536.51734 C 256.67522,536.83299 256.47114,537.22896 256.27366,537.5389 C 254.04136,540.34672 252.59593,542.83231 252.59593,545.09865 C 252.58541,546.32453 252.59593,547.55058 252.59593,548.77645 C 252.59593,559.30527 265.44176,564.23342 277.95733,569.59528 C 288.07412,576.0199 299.5142,575.41419 311.04828,575.19455 C 320.03971,574.74082 319.90164,574.35651 328.55904,571.62545 C 334.4916,569.37271 333.85335,570.13839 335.34053,569.46929 C 341.30632,562.01524 346.22162,563.93229 347.578,554.59301 C 348.29914,552.20212 346.9744,545.30777 347.67369,545.14245 L 374.51697,530.43692 C 378.26892,527.28357 370.53525,550.12802 370.53525,552.52469 C 370.53525,555.55117 376.39324,556.45592 377.94572,558.16203 C 394.03367,559.6722 403.4259,558.54985 418.16767,559.38721 C 427.38397,559.18865 433.19823,559.07916 439.45548,568.31886 C 440.53801,573.28786 436.54351,573.65465 433.02161,577.00691 C 430.48387,577.27997 411.3183,577.26671 408.28659,577.31125 C 405.25488,577.35588 400.87265,577.01515 397.65335,576.79838 C 373.71517,577.36803 359.90167,581.79147 340.48315,592.53519 C 334.11281,597.10397 328.33947,602.20942 325.15488,608.3677 C 318.38596,626.50523 317.12225,632.88909 327.49375,649.38379 C 329.27788,652.0914 332.25177,658.02491 332.29737,658.19114 C 333.8375,659.98435 338.3332,663.2695 340.69183,664.63803 C 347.94403,669.61438 351.74799,669.32433 366.60565,669.32433 C 369.16638,669.30994 371.77829,669.20701 374.36969,668.91571 C 379.01653,668.54592 383.52021,668.07524 387.85474,667.07683 C 395.61073,665.46561 403.14669,662.91451 409.71679,659.51706 C 420.33711,654.52102 429.261,646.04515 436.68682,637.85928 C 440.78159,633.03276 444.37293,627.67803 447.51574,622.12672 C 448.63615,620.23323 449.77987,618.16067 450.78484,616.20151 C 450.98521,615.78849 451.20254,615.39139 451.39781,614.97558 C 469.72895,578.1503 468.38179,530.76439 438.78845,500.87837 C 425.14946,485.36189 411.27004,478.19655 393.16699,475.63046 C 392.69867,475.60313 392.20903,475.64778 391.7368,475.63046 C 390.67037,475.48658 389.54698,475.24474 388.46771,475.22177 z"
       id="path3299"
       style="fill:none;fill-opacity:1;stroke:#aa6500;stroke-width:6.53819132;stroke-miterlimit:4;stroke-dasharray:none;stroke-opacity:1;display:inline" />
    <path
       d="M 390.46772,468.35255 C 388.52532,468.31129 386.4946,468.46694 384.35692,468.78902 C 384.14534,468.82095 383.9168,468.97186 383.70221,469.00728 C 372.29829,470.11133 360.05734,473.53057 346.60107,479.48288 C 342.62101,481.24343 338.40863,482.93593 334.3795,484.50245 C 333.81111,484.7235 333.1992,484.94126 332.63355,485.15718 C 327.22125,486.85047 321.95506,488.5093 317.57486,489.74027 C 317.43554,489.77923 317.27679,489.91989 317.13837,489.95851 C 313.61892,490.94127 310.47295,491.63579 308.19045,492.14092 C 306.5117,492.51247 304.73317,493.04666 302.73442,493.88686 C 302.2044,493.93749 301.63315,494.1051 301.20671,494.1051 C 289.28567,494.1051 261.5727,517.00341 250.35632,533.38866 C 250.23137,533.53024 250.04037,533.68457 249.91984,533.82516 C 249.69405,534.16234 249.47608,534.58528 249.26511,534.91637 C 246.88073,537.91555 245.33675,540.57048 245.33675,542.99132 C 245.32551,544.30071 245.33675,545.6103 245.33675,546.91968 C 245.33675,558.16603 255.10192,566.72677 268.47042,572.45398 C 269.34407,572.82826 270.18491,573.19706 271.0893,573.54522 C 281.1767,578.35639 293.18008,581.40193 305.13507,581.40193 C 314.73926,580.91726 323.82265,579.51779 333.07006,576.6006 C 333.2603,576.514 333.53371,576.48012 333.72477,576.38234 C 333.81809,576.34777 333.85034,576.19918 333.94303,576.16411 C 334.07983,576.09085 334.24234,576.02464 334.3795,575.94587 C 343.86384,572.24106 350.27933,566.18439 350.52942,557.17707 C 350.55192,556.36708 350.49302,555.28647 350.74766,554.12168 C 351.06501,553.44138 351.53146,552.85776 351.83886,552.1575 C 351.86526,552.09744 351.8126,551.99945 351.83886,551.93924 L 365.36988,543.42781 C 364.71514,546.12053 364.06041,548.94272 364.06041,551.50276 C 364.06041,554.73548 364.80279,557.10058 366.46108,558.92301 C 369.06763,565.00065 378.70171,563.94256 399.41563,563.94256 C 404.85953,563.94256 409.68349,564.27883 413.81959,564.59728 C 413.94343,564.60631 414.13358,564.58801 414.25609,564.59728 C 416.14162,564.74967 417.91124,564.81887 419.49389,565.03377 C 419.77527,565.06346 420.09402,565.00283 420.36685,565.03377 C 421.71181,565.2344 422.9818,565.66013 424.07697,565.90674 C 424.20116,565.93434 424.39271,565.87853 424.51346,565.90674 C 425.6632,566.18106 426.72696,566.67257 427.56884,566.99795 C 427.62507,567.02037 427.7324,566.97525 427.78711,566.99795 C 429.54979,567.71261 430.62493,568.46704 430.84248,569.3986 C 430.09186,569.89459 429.01085,570.31919 427.56884,570.70806 C 425.71285,571.20859 423.29585,571.50763 420.58509,571.79928 C 417.87444,572.09092 414.87547,572.40636 411.63717,572.45398 C 408.39888,572.50164 405.03679,572.46733 401.59805,572.23575 C 375.02938,570.44638 351.91889,575.97332 336.34368,587.0762 C 336.13053,587.21861 335.8995,587.36856 335.68895,587.5127 C 335.31777,587.78449 334.96007,588.10744 334.59774,588.38568 C 327.79327,593.26577 322.2859,599.04887 318.88431,605.62678 C 311.65406,625.00039 311.95261,639.73141 323.03093,657.35014 C 323.09071,657.61491 323.18979,657.7286 323.24916,658.00488 C 324.62677,659.75624 326.04552,661.36462 327.39576,662.8062 C 327.57643,663.01912 327.64809,663.24646 327.83223,663.46094 C 329.47732,665.37637 331.64194,667.23696 334.16126,668.69874 C 341.90768,674.01421 351.24575,675.68248 367.11582,675.68248 C 369.85107,675.66712 372.64099,675.55718 375.409,675.246 C 380.37248,674.85106 385.18311,674.34823 389.81298,673.28183 C 398.09752,671.5608 406.14704,668.8359 413.16488,665.20685 C 424.50893,659.87038 434.04096,650.81693 441.97281,642.07322 C 446.3466,636.91773 450.18271,631.19812 453.53965,625.26855 C 454.73645,623.246 455.95812,621.03217 457.03154,618.93955 C 457.24558,618.49838 457.4777,618.0742 457.68624,617.6301 C 477.26665,578.29527 475.82765,527.68016 444.2176,495.75753 C 429.64923,479.18364 414.82394,471.53009 395.48729,468.78902 C 394.98703,468.75991 394.46402,468.80754 393.95958,468.78902 C 392.82052,468.6354 391.62052,468.37706 390.46772,468.35255 z"
       id="path4179"
       style="fill:none;fill-opacity:1;stroke:#1e1200;stroke-width:6.9837451;stroke-opacity:1;display:inline" />
  </g>
</svg>
